<?xml version="1.0" standalone="no"?>
<!DOCTYPE svg PUBLIC "-//W3C//DTD SVG 20010904//EN"
 "http://www.w3.org/TR/2001/REC-SVG-20010904/DTD/svg10.dtd">
<svg version="1.0" xmlns="http://www.w3.org/2000/svg"
 width="16.000000pt" height="16.000000pt" viewBox="0 0 16.000000 16.000000"
 preserveAspectRatio="xMidYMid meet">
<metadata>
Created by potrace 1.11, written by Peter Selinger 2001-2013
</metadata>
<g transform="translate(0.000000,16.000000) scale(0.001333,-0.001333)"
fill="#000000" stroke="none">
<path d="M1795 11989 c-593 -62 -1138 -394 -1468 -894 -78 -119 -178 -324
-222 -458 -44 -130 -80 -305 -95 -446 -14 -144 -14 -8238 0 -8382 61 -606 389
-1149 895 -1482 144 -95 470 -246 488 -227 3 3 73 138 157 300 456 881 1008
1897 2215 4080 656 1185 663 1199 706 1340 38 126 9 259 -102 475 -31 61 -79
154 -107 208 -59 114 -74 175 -73 296 1 186 78 461 209 741 59 127 906 1674
1230 2245 228 404 279 483 368 573 170 172 166 158 -295 -896 -324 -740 -810
-1842 -837 -1895 -37 -75 -29 -138 19 -156 24 -9 54 2 75 28 7 9 332 655 723
1436 391 781 713 1421 714 1423 8 8 66 -31 62 -41 -3 -7 -293 -658 -645 -1447
-352 -789 -641 -1444 -642 -1455 -5 -48 1 -65 30 -80 41 -21 85 -19 115 8 17
15 244 491 695 1457 704 1509 672 1446 722 1419 13 -7 15 -15 9 -32 -5 -12
-278 -670 -606 -1462 -330 -796 -599 -1459 -602 -1482 -7 -54 8 -73 56 -73 43
0 70 24 94 80 55 132 1118 2373 1261 2657 107 214 123 221 111 45 -5 -76 -16
-138 -41 -218 -73 -244 -354 -1018 -879 -2429 -239 -644 -418 -947 -670 -1133
-83 -61 -125 -81 -315 -147 -316 -110 -354 -140 -451 -366 -22 -52 -190 -501
-374 -999 -878 -2382 -1460 -3922 -1732 -4587 -4 -10 191 -13 954 -13 l959 0
106 187 c184 325 304 549 446 833 254 506 294 616 423 1145 115 474 111 460
224 695 185 386 530 1281 1155 3000 211 581 309 815 502 1200 201 404 412 755
600 1002 109 143 303 347 438 460 256 215 604 395 804 416 130 14 213 -9 238
-64 14 -31 -21 -142 -145 -454 -105 -266 -146 -360 -357 -820 -92 -201 -316
-689 -498 -1085 -656 -1430 -933 -2016 -1122 -2370 -308 -578 -587 -1134 -864
-1720 -119 -251 -167 -340 -292 -540 -259 -413 -312 -508 -439 -795 -108 -243
-435 -1060 -435 -1086 0 -10 4804 -3 4901 6 697 70 1298 487 1604 1113 106
217 170 443 195 686 14 144 14 8238 0 8382 -70 697 -487 1298 -1113 1604 -217
106 -443 170 -686 195 -126 12 -8274 12 -8396 -1z"/>
</g>
</svg>
